<?xml version="1.0" encoding="UTF-8"?><svg id="Capa_2" xmlns="http://www.w3.org/2000/svg" viewBox="0 0 354.77 173.87"><defs><style>.cls-1{fill:#ffd69f;}.cls-1,.cls-2{stroke-width:0px;}.cls-2{fill:red;}</style></defs><g id="Capa_3"><path class="cls-2" d="M251.18,87.73c.09.15.15.37.28.43,4.77,2.19,8.71,5.64,12.95,8.63,2.38,1.67,4.72,3.42,7.18,5.2.22-1.4.34-2.69.65-3.94,1.45-5.97,4.62-10.57,10.76-12.4,5.01-1.49,9.79-.92,14.13,2.25,4.64,3.4,9.32,6.76,13.96,10.17.96.7,1.8,1.56,2.85,2.48.68-4.88,1.34-9.67,2.02-14.55,2.32,0,4.55,0,6.78,0,1.04,0,2.09.1,3.12-.02,2.52-.3,4.6.38,6.62,1.99,3.43,2.74,7,5.32,10.63,7.79,1.27.87,1.71,1.84,1.9,3.29,1.45,11.3,2.99,22.58,4.5,33.87,1.72,12.83,3.46,25.66,5.18,38.5.05.39.07.79.11,1.3-.4.03-.74.07-1.08.07-2.32,0-4.65-.15-6.96.05-2.4.21-4.32-.49-6.15-1.98-2.16-1.76-4.46-3.35-6.71-4.99-.21-.15-.51-.18-.87-.3-.31,2.4-.61,4.72-.93,7.19-.41.02-.83.06-1.25.06-2.4,0-4.81-.16-7.2.05-2.23.19-3.98-.54-5.65-1.86-1.08-.85-2.26-1.58-3.38-2.39-.16-.12-.23-.36-.38-.61-.28.26-.51.42-.68.62-4.79,5.87-14.6,7.05-21.23,2.27-4.64-3.34-9.25-6.72-13.87-10.09-.35-.26-.71-.5-1-.7-1.74,1.52-3.34,3.09-5.12,4.43-6.19,4.66-13.24,6.94-20.94,7.34-9.08.47-17.77-.99-25.41-6.15-6.36-4.29-12.41-9.03-18.6-13.57-.21-.16-.43-.31-.95-.7,0,2.26.11,4.25-.02,6.22-.32,4.92-1.93,9.23-6.18,12.15-3.07,2.1-6.59,2.86-10.23,2.93-4.72.1-9.44.06-14.16-.01-.83-.01-1.76-.35-2.47-.8-1.29-.82-2.45-1.85-3.94-3.01.17,1.3.3,2.28.45,3.44-.58.12-1.14.34-1.7.34-3.36.04-6.72.06-10.08.03-1.62-.02-2.53-1.39-3.74-2.18-1.6-1.04-3.11-2.22-4.97-3.57,0,1.64-.06,2.93.02,4.22.06.98-.32,1.41-1.27,1.42-3.48.02-6.97.24-10.42-.02-1.23-.09-2.37-1.34-3.54-2.06-.22-.13-.43-.28-.88-.57.09,1.04.15,1.84.23,2.8h-2.81c-1.68,0-3.38-.14-5.04.03-2.46.26-4.48-.43-6.37-2.01-2.11-1.76-4.4-3.31-6.63-4.93-.23-.16-.56-.18-.91-.29-.29,2.16-.61,4.17-.82,6.19-.08.81-.41.97-1.14.97-3.28-.03-6.56.08-9.84-.07-.87-.04-1.79-.69-2.56-1.24-2.39-1.69-4.73-3.45-7.07-5.21-1.81-1.35-3.6-2.73-5.4-4.08-.17-.13-.41-.16-.61-.24,3.37-24.69,6.72-49.31,10.06-73.77-3.47.11-6.81.41-10.15.29-8.51-.32-16.31-2.79-23.16-8.04-4.26-3.25-8.65-6.32-12.99-9.46-.31-.23-.64-.43-1.11-.74-.8,6.31-2.24,12.14-8.47,15.71.73.04,1.1.08,1.48.08,3.32,0,6.65.12,9.96-.05,1.63-.08,2.8.58,3.98,1.44,2.84,2.08,5.67,4.19,8.51,6.27,1.4,1.02,2.84,1.99,4.22,3.03.23.17.34.58.38.89.71,5.15,1.41,10.29,2.1,15.44,1.09,8.12,2.17,16.24,3.26,24.36,1.08,8.08,2.16,16.16,3.24,24.24.44,3.29.88,6.57,1.32,9.86.05.39.08.77.13,1.3-2.57,0-5.05-.13-7.51.03-2.67.17-4.9-.33-6.96-2.27-1.93-1.82-4.27-3.21-6.45-4.76-.2-.14-.5-.15-.86-.24-.33,2.45-.64,4.8-.96,7.22-3.93,0-7.77,0-11.6,0-.61,0-1.23-.03-1.84-.03-7.84,0-15.68-.06-23.52.05-1.67.02-2.95-.46-4.21-1.4-2.9-2.14-5.83-4.24-8.75-6.36-1.36-.99-2.71-1.98-4.05-2.99-.15-.12-.25-.36-.29-.56-.05-.27-.01-.56-.01-.84,0-24.37,0-48.73,0-73.1,0-.47,0-.94,0-1.59h12.11c.02-.08.03-.17.05-.25-2.54-1.86-5.08-3.73-7.63-5.57-1.21-.88-2.47-1.69-3.69-2.56-.61-.44-.88-.99-.88-1.85.05-8.92.03-17.84.03-26.77,0-15.4,0-30.81,0-46.21,0-.47,0-.95,0-1.48.59-.09,1.09-.23,1.59-.22,5.04.03,10.08,0,15.11.17,3.23.11,6.13,1.35,8.75,3.26,4.97,3.63,9.96,7.24,14.86,10.8,1.77-1.81,3.38-3.71,5.24-5.33,5.49-4.8,12-7.38,19.17-8.35,7.68-1.03,15.27-.63,22.52,2.32,2.79,1.13,5.48,2.63,7.96,4.34,5.49,3.78,10.82,7.81,16.41,11.88V1.22c.69-.08,1.2-.2,1.72-.19,5.28.04,10.56-.01,15.83.19,3.44.13,6.65,1.24,9.47,3.35,3.17,2.37,6.4,4.67,9.6,6.99.25.18.53.34.97.63V1.19c.64-.03,1.14-.07,1.64-.07,7.6,0,15.2.04,22.8-.04,1.6-.02,2.94.29,4.16,1.32,1.13.95,2.32,1.85,3.54,2.67.27.18,1.02.12,1.19-.1,4.55-5.78,15.79-6.89,22.6-1.39,4.13,3.34,8.59,6.27,12.86,9.43,1.34.99,2.54,2.15,3.92,3.33.27-1.9.55-3.81.82-5.72.41-2.85.83-5.69,1.2-8.55.1-.76.44-.98,1.17-.98,4,.03,8-.07,12,.08.9.03,1.82.82,2.64,1.4,4,2.83,7.97,5.7,11.94,8.56.73.53,1.15,1.17,1.28,2.16,1.12,8.76,2.32,17.51,3.49,26.26,1.07,8.04,2.14,16.08,3.21,24.13.99,7.45,2,14.89,2.99,22.34.07.54.11,1.09.17,1.72-3.97,0-7.84,0-11.71,0-2.91-2.14-5.81-4.29-8.71-6.43-.37-.27-.77-.48-1.33-.83-.2,1.64-.36,3.01-.53,4.4.27.1.45.19.64.24,3.02.84,6.04,1.69,9.07,2.52.28.08.59.05.89.07ZM71.72,75.8c1.28,0,2.56.09,3.83-.02,1.55-.13,3.1-.34,4.62-.67,12.56-2.7,21.35-9.91,25.53-22.14,3.24-9.48,2.9-19.08-.61-28.45-3.68-9.82-10.66-16.34-20.65-19.57-7.04-2.27-14.24-2.5-21.45-1.1-11.78,2.3-20.35,8.76-24.91,20.04-2.99,7.41-3.52,15.16-2.29,23,1.55,9.84,6.18,17.84,14.68,23.3,6.45,4.14,13.65,5.69,21.23,5.6ZM270.01,121.65c-.25-1.81-.46-5.27-1.24-8.59-2.95-12.51-10.42-21.06-22.84-24.83-8.24-2.5-16.59-2.39-24.83.1-10.59,3.21-17.84,10.09-21.43,20.59-3.04,8.88-3.19,17.91-.44,26.89,3,9.81,9.3,16.75,18.8,20.63,7.56,3.09,15.43,3.68,23.44,2.3,7.38-1.27,13.83-4.44,19.02-9.91,6.77-7.16,9.38-15.9,9.54-27.17ZM23.46,36.79c.27-.29.44-.5.65-.68,2.04-1.77,3.45-3.95,4.35-6.5,1.7-4.79,2.06-9.67,1-14.64-1.57-7.34-6.13-11.43-13.62-11.89-4.02-.25-8.07-.08-12.11-.1-1.77,0-1.77,0-1.77,1.73,0,23,0,46,0,69,0,.24.02.48,0,.72-.07.68.24.91.9.9,4.64-.09,9.28.02,13.91-.26,6.87-.42,10.87-3.79,12.63-10.46,1.53-5.8,1.46-11.73.71-17.63-.45-3.54-2.25-6.45-5.05-8.71-.53-.42-.99-.92-1.6-1.49ZM161.41,88.12c-.02.23-.07.54-.07.85,0,23.36,0,46.71-.02,70.07,0,1,.38,1.2,1.26,1.19,3.64-.03,7.28.02,10.92-.03,1.67-.02,3.36-.11,5.01-.37,6.1-.95,9.76-4.43,10.98-10.46.28-1.36.4-2.78.4-4.17.01-14.32.02-28.63-.04-42.95-.03-8.17-4.26-13.29-12.24-14.04-5.3-.5-10.69-.1-16.2-.1ZM113.65,39.23c0,11.56.01,23.12-.02,34.68,0,1.06.24,1.46,1.39,1.44,3.72-.07,7.44.02,11.16-.05,1.67-.03,3.36-.15,5-.46,5.66-1.07,9.37-4.31,10.54-10.07.35-1.75.46-3.57.47-5.36.04-10.48.03-20.96.02-31.44,0-3.88.05-7.76-.14-11.63-.23-4.55-1.69-8.56-5.87-11.05-2.31-1.38-4.86-2.1-7.53-2.18-4.47-.12-8.95-.1-13.43-.12-1.58,0-1.58,0-1.58,1.57,0,11.56,0,23.12,0,34.68ZM132.76,128.18c1.23,0,2.28.1,3.3-.02,1.24-.15,1.7.28,1.93,1.53,1.71,9.27,3.52,18.53,5.28,27.79.5,2.65.48,2.7,3.18,2.8,2.14.08,4.28.02,6.55.02-.11-.72-.16-1.12-.24-1.5-2-10.44-4.01-20.88-6.02-31.31-.28-1.47-.04-2.72,1.03-3.87,1.75-1.88,2.88-4.13,3.43-6.64,1.21-5.46,1.23-10.99.31-16.45-1.36-8.01-5.75-11.97-13.86-12.53-4.46-.31-8.95-.07-13.43-.07-.1,0-.21.1-.4.19v1.28c0,23.08,0,46.16,0,69.24,0,.28-.09.6.03.83.15.29.45.71.69.71,2.7.05,5.41.03,8.23.03v-32.04ZM202.96,70.43c.4.98.71,1.71,1.01,2.45.98,2.44.98,2.41,3.56,2.38.83,0,1.12-.27,1.11-1.1-.02-2.52.06-5.04.06-7.56-.01-7.68-.05-15.36-.07-23.04,0-1.35,0-2.69,0-4.07-4.46,0-8.73-.01-12.99.04-.23,0-.63.53-.66.85-.09.91-.03,1.84-.03,2.76,0,3.28,0,3.32,3.32,3.28,1.05-.01,1.42.31,1.41,1.34-.02,5.12.01,10.24-.03,15.36,0,.82-.21,1.67-.49,2.46-1.21,3.43-5.66,4.39-8.27,1.85-1.62-1.58-1.77-3.6-1.77-5.66,0-15.24-.02-30.48.03-45.72,0-1.21.28-2.47.7-3.61.84-2.28,3.14-3.44,5.52-2.98,2.25.43,3.84,2,4.08,4.57.26,2.78.19,5.59.26,8.38.02.91,0,1.81,0,2.76h8.86c0-3.32.21-6.56-.04-9.77-.61-7.7-5.11-12.6-12.34-13.34-6.58-.67-11.89,1.92-14.56,8.3-1.02,2.43-1.48,4.97-1.48,7.6,0,14,0,28,.02,42,0,1.43.13,2.88.37,4.29,1.17,6.78,5.21,10.88,11.68,11.95,3.55.59,6.45-.54,8.75-3.29.64-.76,1.26-1.54,2.01-2.46ZM60.21,160.14c-.44-3.32-.85-6.45-1.26-9.58-1.41-10.5-2.82-21-4.22-31.49-1.35-10.02-2.7-20.04-4.02-30.07-.11-.84-.43-1.06-1.21-1.05-2.8.03-5.6.06-8.4-.01-.99-.02-1.29.33-1.41,1.25-1.21,9.03-2.45,18.06-3.68,27.09-1.48,10.89-2.97,21.78-4.45,32.67-.5,3.67-.99,7.35-1.51,11.19,2.26,0,4.41-.07,6.56.03,1.15.05,1.47-.35,1.59-1.46.49-4.45,1.08-8.89,1.68-13.32.04-.31.48-.81.74-.81,2.99-.06,5.98-.04,9.03-.04.11.53.21.95.28,1.38.73,4.46,1.44,8.92,2.2,13.37.05.32.48.8.75.81,2.39.06,4.78.04,7.35.04ZM225.82,59.73c3.15,0,6.18-.02,9.21.04.23,0,.6.55.66.89.75,4.41,1.49,8.82,2.15,13.25.16,1.07.57,1.41,1.61,1.34,1.27-.08,2.56-.02,3.84-.02.9,0,1.79,0,2.78,0-3.24-24.2-6.44-48.14-9.66-72.18-3.24,0-6.36.03-9.47-.02-.93-.02-1.22.3-1.34,1.2-.94,7.05-1.95,14.09-2.91,21.14-2.06,15.08-4.1,30.17-6.14,45.26-.2,1.48-.35,2.97-.53,4.6,2.53,0,4.88.03,7.23-.04.24,0,.63-.54.68-.87.3-1.93.5-3.88.75-5.83.37-2.89.75-5.77,1.14-8.76ZM116.61,160.21c0-.36.02-.52,0-.67-.99-7.37-1.98-14.73-2.96-22.1-1.4-10.46-2.8-20.91-4.2-31.37-.76-5.66-1.54-11.33-2.27-16.99-.11-.84-.4-1.14-1.27-1.12-2.84.05-5.68.04-8.52,0-.78,0-1.1.21-1.21,1.05-.48,3.85-1.05,7.68-1.58,11.52-2.48,18.17-4.96,36.35-7.43,54.53-.22,1.64-.42,3.29-.64,5.09,2.58,0,4.97.03,7.36-.04.23,0,.6-.56.65-.89.37-2.65.67-5.31,1.01-7.97.28-2.21.6-4.41.91-6.69h7.09c2.63,0,2.61,0,3.02,2.6.63,3.99,1.27,7.97,1.96,11.95.07.41.49,1.06.77,1.07,2.39.09,4.78.05,7.3.05ZM337.97,160.14c-.78-5.87-1.54-11.53-2.3-17.19-1.4-10.46-2.79-20.91-4.2-31.37-1.01-7.53-2.03-15.05-3.02-22.58-.11-.81-.4-1.06-1.2-1.05-2.84.04-5.68.04-8.52,0-.86-.01-1.15.26-1.27,1.12-1.3,9.7-2.65,19.4-3.97,29.1-1.59,11.6-3.17,23.2-4.75,34.8-.32,2.36-.62,4.72-.95,7.23,2.56,0,4.95.03,7.34-.05.25,0,.65-.62.7-.99.61-4.51,1.18-9.03,1.71-13.56.09-.77.39-1.01,1.14-1,2.6.03,5.2.03,7.8,0,.74,0,1.05.23,1.16.99.69,4.5,1.42,9,2.19,13.49.07.39.52,1,.81,1.01,2.39.08,4.78.05,7.32.05ZM300.71,105.57c0-1.46.03-2.74,0-4.01-.1-3.49-.67-6.86-2.7-9.8-3.95-5.71-13.31-6.66-18.92-1.85-3.95,3.38-5.45,7.91-5.42,12.96.03,4.83,1.9,9.14,4.42,13.13,2.86,4.53,5.92,8.93,8.88,13.4,2.44,3.69,4.44,7.6,5.46,11.93.61,2.56.77,5.16-.25,7.67-.92,2.28-3.02,3.66-5.21,3.53-2.2-.13-3.83-1.51-4.49-4.01-.37-1.38-.59-2.82-.7-4.24-.12-1.5-.03-3.01-.03-4.7-2.97.24-5.64.46-8.37.68.09,4.08-.33,8,.92,11.83,1.77,5.43,5.56,8.43,11.09,9.07,5.25.6,9.84-1,12.81-5.58,3.69-5.69,4.41-11.9,2.41-18.4-1.33-4.33-3.66-8.15-6.14-11.89-3.16-4.77-6.41-9.48-9.36-14.37-1.24-2.04-2.07-4.42-2.65-6.75-.63-2.57-.31-5.2,1.33-7.45,1.93-2.65,5.22-2.67,7.01.06.76,1.16,1.25,2.59,1.53,3.96.34,1.7.33,3.47.48,5.29,2.66-.15,5.2-.3,7.92-.45ZM151.29,3.12v72.04h23.89v-7.92c-.55,0-1.02,0-1.49,0-3.96-.01-7.92-.09-11.88,0-1.31.03-1.53-.51-1.52-1.6.03-7.04,0-14.08.05-21.12.02-2.73.08-2.73,2.84-2.73h7.12v-8.98h-9.92V10.96h14.26V3.12h-23.34ZM10.92,152.14c0-.68,0-1.22,0-1.77,0-15.76,0-31.52,0-47.28,0-4.56-.04-9.12.03-13.68.02-1.18-.37-1.51-1.5-1.46-2.04.08-4.08.08-6.12,0-1.13-.05-1.39.36-1.39,1.44.03,23.12.02,46.24.02,69.37,0,.43.04.85.06,1.32h23.62v-7.93h-14.72ZM15.35,88.18c3.49,2.5,7,4.97,10.46,7.51.96.7,1.78,1.38,1.77,2.97-.1,16.72-.06,33.45-.06,50.17,0,.48-.09,1.05.13,1.41.29.46.85.76,1.3,1.12.16-.38.4-.74.46-1.13.27-1.74.48-3.48.72-5.23,1.16-8.51,2.32-17.03,3.48-25.54,1.17-8.55,2.34-17.11,3.5-25.66.34-2.52.67-5.04,1.02-7.63-7.51,2.75-15.2,1.33-22.79,2.01ZM201.5,100.51c3.97-6.11,9.37-10.37,16.04-13.07-1.01-1.48-1.26-1.45-2.58-.64-1.14.7-2.37,1.42-3.65,1.71-4.34.98-8.31-.1-11.91-2.62-2.19-1.54-4.33-3.15-6.5-4.72-.27-.2-.57-.35-1.06-.65,0,1.93,0,3.63,0,5.34,0,1.82,0,1.83-1.83,1.92-.64.03-1.28.02-1.92.02-1.25,0-2.51,0-4.08,0,6.01,4.36,11.72,8.51,17.49,12.7ZM124.06,85.81c-3.43-2.47-6.68-4.71-9.81-7.11-.72-.55-.95-.22-1.35.14-2.67,2.45-5.64,4.45-8.92,5.99-.67.31-1.34.61-2.01.92,1.34.26,2.64.34,3.93.24,1.58-.12,2.99.12,4.18,1.23.24.23.51.44.78.63,3.37,2.46,6.74,4.93,10.12,7.38.17.12.46.28.58.22.16-.08.27-.38.28-.59.03-.76.02-1.52.02-2.28,0-2.11,0-4.22,0-6.35.74-.14,1.34-.26,2.19-.43ZM159.41,86c.79-.04,1.46-.08,2.13-.11-1.53-1.4-3.16-2.43-4.63-3.64-.85-.71-1.2-.41-1.76.27-1.61,1.96-3.67,3.31-6.06,4.1-1.27.42-2.58.72-3.87,1.07,4.67,3.38,9.33,6.76,14.2,10.29v-11.98ZM311.5,118.41c-1.86.1-3.45.22-5.04.24-.39,0-.82-.21-1.16-.44-1.49-.99-2.96-2.01-4.43-3.04-.57-.4-1.12-.84-1.68-1.26-.12.11-.24.21-.36.32,1.72,7.13,6.75,12.4,10.41,18.45.11-.03.22-.07.33-.1.63-4.67,1.27-9.34,1.92-14.17ZM218.19,43.55c.27-1.93.52-3.75.8-5.72-1.92,0-3.67,0-5.42,0-.35,0-.79.06-1.04-.12-1.95-1.38-3.86-2.82-5.8-4.23-.29-.21-.62-.35-.98-.56v4.55c1.06,0,2.06-.06,3.04.02.55.05,1.17.22,1.62.53,2.55,1.77,5.07,3.6,7.77,5.54ZM286.64,132.96c-.11,1.94-.16,3.88-.35,5.8-.08.81.28,1.26.81,1.65,1.11.82,2.26,1.59,3.65,2.56-.63-3.81-2.19-6.96-4.11-10.01ZM178.71,66.6c-.24-3.94-.49-8.02-.74-12.13-.78-.25-1.11.04-1.1.91,0,2.6.08,5.2-.08,7.79-.11,1.8.44,2.99,1.93,3.42ZM176.88,23.56c0,3.53-.03,6.96.02,10.38,0,.59.24,1.29,1.18.99v-11.38h-1.21Z"/><path class="cls-1" d="M71.72,75.8c-7.58.09-14.78-1.46-21.23-5.6-8.51-5.46-13.13-13.46-14.68-23.3-1.24-7.84-.71-15.58,2.29-23,4.55-11.28,13.12-17.75,24.91-20.04,7.21-1.41,14.41-1.18,21.45,1.1,9.99,3.22,16.97,9.74,20.65,19.57,3.51,9.37,3.85,18.97.61,28.45-4.19,12.24-12.97,19.44-25.53,22.14-1.52.33-3.07.53-4.62.67-1.27.11-2.55.02-3.83.02ZM98.81,39.3c-.05-1.03-.09-2.1-.17-3.18-.04-.6-.13-1.19-.22-1.78-1.32-8.11-5.25-14.51-12.47-18.65-5.62-3.22-11.75-3.97-18.09-3.34-5.89.58-11.13,2.73-15.55,6.76-9.43,8.62-10.19,24.15-5.06,33.84,4.67,8.81,12.34,13.02,22.04,13.74,7.25.54,14.03-1.03,19.8-5.68,6.88-5.54,9.6-13.03,9.72-21.71Z"/><path class="cls-1" d="M270.01,121.65c-.16,11.27-2.76,20.02-9.54,27.17-5.19,5.48-11.64,8.64-19.02,9.91-8.01,1.38-15.88.79-23.44-2.3-9.5-3.88-15.8-10.83-18.8-20.63-2.74-8.98-2.59-18.01.44-26.89,3.59-10.49,10.84-17.38,21.43-20.59,8.23-2.5,16.59-2.6,24.83-.1,12.43,3.77,19.89,12.32,22.84,24.83.78,3.32.99,6.78,1.24,8.59ZM206.3,122.06c0,.68-.02,1.36,0,2.03.02.68.05,1.36.12,2.03.98,9.09,5.06,16.25,13.21,20.74,5.62,3.09,11.71,3.95,18.01,3.14,9.13-1.17,16.12-5.62,20.34-13.97,2.8-5.53,3.49-11.46,2.65-17.52-1.39-10.03-6.59-17.25-16.15-21.03-4.59-1.81-9.4-2.2-14.27-1.7-8.09.83-14.77,4.23-19.42,11.08-3.1,4.57-4.39,9.71-4.5,15.18Z"/><path class="cls-1" d="M23.46,36.79c.6.57,1.07,1.06,1.6,1.49,2.8,2.26,4.6,5.16,5.05,8.71.75,5.9.81,11.82-.71,17.63-1.75,6.67-5.76,10.05-12.63,10.46-4.62.28-9.27.17-13.91.26-.67.01-.97-.22-.9-.9.02-.24,0-.48,0-.72,0-23,0-46,0-69,0-1.73,0-1.74,1.77-1.73,4.04.02,8.09-.15,12.11.1,7.49.46,12.05,4.54,13.62,11.89,1.06,4.97.7,9.85-1,14.64-.9,2.55-2.31,4.73-4.35,6.5-.21.18-.38.39-.65.68ZM11.27,41.17c-.09.75-.21,1.26-.22,1.77-.02,6.76-.04,13.51-.04,20.27,0,1.04.02,2.08.15,3.11.04.32.46.82.73.83,1.23.06,2.5.12,3.71-.07,3.3-.52,5.53-3.22,5.71-7.18.17-3.79.15-7.6.02-11.39-.12-3.47-2.3-6.32-5.16-6.89-1.55-.31-3.16-.3-4.9-.45ZM11.1,10.87v22.36c.87,0,1.7,0,2.53,0,4.52,0,7.47-2.71,7.7-7.24.13-2.59.12-5.2,0-7.79-.17-3.71-2.5-6.6-5.68-7.08-1.45-.22-2.94-.17-4.55-.26Z"/><path class="cls-1" d="M161.41,88.12c5.51,0,10.9-.41,16.2.1,7.98.76,12.21,5.87,12.24,14.04.06,14.32.05,28.63.04,42.95,0,1.39-.12,2.81-.4,4.17-1.22,6.03-4.88,9.51-10.98,10.46-1.65.26-3.34.34-5.01.37-3.64.05-7.28,0-10.92.03-.89,0-1.26-.19-1.26-1.19.03-23.36.02-46.71.02-70.07,0-.31.05-.62.07-.85ZM170.3,123.87s.06,0,.08,0c0,6.84,0,13.68,0,20.52,0,2.12.02,4.24.1,6.36.02.57-.1,1.39.89,1.4,1.24,0,2.49.08,3.71-.05,2.82-.31,4.79-2.08,5.38-4.87.28-1.32.45-2.69.45-4.04.03-12.84.02-25.68,0-38.52,0-.96-.07-1.92-.23-2.86-.63-3.74-2.92-5.75-6.7-5.89-.8-.03-1.6.11-2.39.05-.89-.06-1.2.28-1.2,1.16,0,2.36-.1,4.72-.1,7.07-.02,6.56,0,13.12,0,19.68Z"/><path class="cls-1" d="M113.65,39.23c0-11.56,0-23.12,0-34.68,0-1.57,0-1.58,1.58-1.57,4.48.03,8.96,0,13.43.12,2.67.07,5.22.8,7.53,2.18,4.17,2.49,5.64,6.51,5.87,11.05.19,3.87.14,7.76.14,11.63.02,10.48.03,20.96-.02,31.44,0,1.79-.12,3.61-.47,5.36-1.17,5.76-4.88,9-10.54,10.07-1.64.31-3.33.43-5,.46-3.72.07-7.44-.03-11.16.05-1.15.02-1.39-.38-1.39-1.44.03-11.56.02-23.12.02-34.68ZM122.75,11.06v56.15c1.29,0,2.49.03,3.68,0,3.65-.12,5.8-1.94,6.47-5.51.16-.86.26-1.75.26-2.62.03-13.16.04-26.31.04-39.47,0-.95-.09-1.92-.24-2.86-.52-3.09-2.51-5.33-5.24-5.65-1.61-.19-3.26-.03-4.97-.03Z"/><path class="cls-1" d="M132.76,128.18v32.04c-2.82,0-5.53.02-8.23-.03-.24,0-.54-.42-.69-.71-.11-.22-.03-.55-.03-.83,0-23.08,0-46.16,0-69.24v-1.28c.19-.1.29-.19.4-.19,4.48,0,8.97-.23,13.43.07,8.12.56,12.51,4.52,13.86,12.53.92,5.46.9,10.99-.31,16.45-.55,2.5-1.69,4.76-3.43,6.64-1.07,1.15-1.31,2.4-1.03,3.87,2.01,10.44,4.02,20.87,6.02,31.31.07.39.12.78.24,1.5-2.27,0-4.41.06-6.55-.02-2.69-.1-2.67-.15-3.18-2.8-1.76-9.26-3.56-18.52-5.28-27.79-.23-1.24-.69-1.67-1.93-1.53-1.02.12-2.06.02-3.3.02ZM132.92,120.01c1.31,0,2.47.04,3.63,0,2.69-.1,4.7-1.35,5.68-3.87.52-1.35.84-2.85.91-4.29.14-2.75.09-5.51.03-8.27-.13-5.69-4.68-8.98-10.24-7.41v23.84Z"/><path class="cls-1" d="M202.96,70.43c-.75.92-1.37,1.7-2.01,2.46-2.29,2.75-5.2,3.87-8.75,3.29-6.47-1.07-10.5-5.17-11.68-11.95-.24-1.41-.37-2.86-.37-4.29-.03-14-.01-28-.02-42,0-2.63.46-5.16,1.48-7.6,2.67-6.38,7.98-8.97,14.56-8.3,7.23.73,11.72,5.63,12.34,13.34.26,3.21.04,6.46.04,9.77h-8.86c0-.95.02-1.86,0-2.76-.06-2.8,0-5.6-.26-8.38-.24-2.56-1.83-4.14-4.08-4.57-2.38-.46-4.68.7-5.52,2.98-.42,1.14-.7,2.4-.7,3.61-.05,15.24-.03,30.48-.03,45.72,0,2.07.15,4.08,1.77,5.66,2.61,2.55,7.06,1.58,8.27-1.85.28-.78.48-1.63.49-2.46.04-5.12,0-10.24.03-15.36,0-1.02-.36-1.35-1.41-1.34-3.32.05-3.32,0-3.32-3.28,0-.92-.06-1.85.03-2.76.03-.31.42-.85.66-.85,4.27-.05,8.53-.04,12.99-.04,0,1.38,0,2.73,0,4.07.02,7.68.06,15.36.07,23.04,0,2.52-.07,5.04-.06,7.56,0,.83-.29,1.09-1.11,1.1-2.58.03-2.58.06-3.56-2.38-.3-.74-.61-1.47-1.01-2.45Z"/><path class="cls-1" d="M60.21,160.14c-2.56,0-4.96.03-7.35-.04-.26,0-.69-.49-.75-.81-.76-4.45-1.47-8.91-2.2-13.37-.07-.43-.17-.85-.28-1.38-3.04,0-6.04-.02-9.03.04-.26,0-.69.5-.74.81-.6,4.44-1.19,8.87-1.68,13.32-.12,1.1-.44,1.5-1.59,1.46-2.15-.09-4.3-.03-6.56-.03.52-3.84,1.01-7.52,1.51-11.19,1.48-10.89,2.97-21.78,4.45-32.67,1.23-9.03,2.48-18.06,3.68-27.09.12-.92.42-1.28,1.41-1.25,2.8.07,5.6.04,8.4.01.78,0,1.1.21,1.21,1.05,1.31,10.03,2.67,20.05,4.02,30.07,1.41,10.5,2.82,21,4.22,31.49.42,3.13.83,6.25,1.26,9.58ZM41.17,135.18c2.33,0,4.43.02,6.54,0,.89-.01,1.19-.43,1.08-1.39-.86-7.5-1.66-15.02-2.46-22.53-.06-.56-.2-.91-.86-.83-.6.08-1.22-.13-1.34.88-.64,5.48-1.37,10.94-2.05,16.42-.3,2.41-.58,4.82-.89,7.45Z"/><path class="cls-1" d="M225.82,59.73c-.39,2.99-.77,5.87-1.14,8.76-.25,1.94-.46,3.89-.75,5.83-.05.33-.44.86-.68.87-2.35.07-4.7.04-7.23.04.19-1.62.33-3.12.53-4.6,2.04-15.09,4.09-30.17,6.14-45.26.96-7.05,1.97-14.09,2.91-21.14.12-.9.41-1.21,1.34-1.2,3.11.05,6.22.02,9.47.02,3.22,24.04,6.42,47.98,9.66,72.18-.99,0-1.89,0-2.78,0-1.28,0-2.56-.06-3.84.02-1.04.07-1.45-.28-1.61-1.34-.65-4.43-1.4-8.84-2.15-13.25-.06-.34-.43-.89-.66-.89-3.03-.06-6.06-.04-9.21-.04ZM234.76,50.27c-.9-8.2-1.79-16.32-2.68-24.51h-2.03c-1.02,8.19-2.04,16.3-3.06,24.51h7.78Z"/><path class="cls-1" d="M116.61,160.21c-2.52,0-4.91.04-7.3-.05-.28-.01-.7-.67-.77-1.07-.69-3.98-1.33-7.96-1.96-11.95-.41-2.59-.4-2.6-3.02-2.6h-7.09c-.31,2.28-.63,4.48-.91,6.69-.34,2.66-.64,5.32-1.01,7.97-.05.33-.42.89-.65.89-2.39.07-4.78.04-7.36.04.23-1.79.42-3.44.64-5.09,2.47-18.18,4.95-36.35,7.43-54.53.52-3.84,1.1-7.68,1.58-11.52.11-.84.43-1.06,1.21-1.05,2.84.03,5.68.05,8.52,0,.87-.02,1.16.28,1.27,1.12.73,5.67,1.51,11.33,2.27,16.99,1.4,10.46,2.8,20.91,4.2,31.37.99,7.37,1.98,14.73,2.96,22.1.02.15,0,.31,0,.67ZM100.66,110.69c-1.02,8.21-2.03,16.31-3.05,24.48h7.77c-.9-8.22-1.79-16.33-2.68-24.48h-2.04Z"/><path class="cls-1" d="M337.97,160.14c-2.54,0-4.94.04-7.32-.05-.29-.01-.74-.63-.81-1.01-.77-4.49-1.5-8.99-2.19-13.49-.12-.76-.42-1-1.16-.99-2.6.03-5.2.03-7.8,0-.75,0-1.05.23-1.14,1-.53,4.52-1.11,9.04-1.71,13.56-.05.37-.45.99-.7.99-2.39.08-4.78.05-7.34.05.33-2.51.63-4.87.95-7.23,1.58-11.6,3.16-23.2,4.75-34.8,1.33-9.7,2.67-19.4,3.97-29.1.12-.86.41-1.14,1.27-1.12,2.84.05,5.68.04,8.52,0,.8-.01,1.1.24,1.2,1.05.98,7.53,2.01,15.05,3.02,22.58,1.4,10.46,2.8,20.91,4.2,31.37.76,5.66,1.51,11.32,2.3,17.19ZM323.98,110.68c-1.95-.31-1.98-.32-2.19,1.37-.78,6.1-1.54,12.2-2.31,18.3-.2,1.57-.37,3.15-.57,4.83h7.75c-.9-8.21-1.79-16.34-2.68-24.5Z"/><path class="cls-1" d="M300.71,105.57c-2.71.16-5.25.3-7.92.45-.15-1.82-.14-3.59-.48-5.29-.28-1.37-.77-2.8-1.53-3.96-1.79-2.73-5.08-2.71-7.01-.06-1.64,2.25-1.96,4.88-1.33,7.45.58,2.33,1.41,4.71,2.65,6.75,2.96,4.89,6.21,9.6,9.36,14.37,2.48,3.74,4.81,7.56,6.14,11.89,2,6.49,1.28,12.71-2.41,18.4-2.97,4.58-7.56,6.19-12.81,5.58-5.53-.64-9.32-3.63-11.09-9.07-1.25-3.84-.83-7.75-.92-11.83,2.73-.22,5.4-.44,8.37-.68,0,1.69-.09,3.2.03,4.7.11,1.43.34,2.86.7,4.24.66,2.49,2.3,3.87,4.49,4.01,2.19.13,4.29-1.25,5.21-3.53,1.02-2.51.86-5.1.25-7.67-1.02-4.33-3.02-8.24-5.46-11.93-2.96-4.47-6.02-8.87-8.88-13.4-2.52-4-4.39-8.3-4.42-13.13-.03-5.05,1.47-9.57,5.42-12.96,5.6-4.8,14.97-3.86,18.92,1.85,2.03,2.94,2.6,6.32,2.7,9.8.04,1.27,0,2.55,0,4.01Z"/><path class="cls-1" d="M151.29,3.12h23.34v7.84h-14.26v21.85h9.92v8.98h-7.12c-2.76,0-2.82,0-2.84,2.73-.05,7.04-.02,14.08-.05,21.12,0,1.09.21,1.63,1.52,1.6,3.96-.09,7.92-.01,11.88,0,.47,0,.94,0,1.49,0v7.92h-23.89V3.12Z"/><path class="cls-1" d="M10.92,152.14h14.72v7.93H2.02c-.02-.47-.06-.9-.06-1.32,0-23.12,0-46.24-.02-69.37,0-1.08.26-1.48,1.39-1.44,2.04.08,4.08.08,6.12,0,1.14-.05,1.52.28,1.5,1.46-.06,4.56-.03,9.12-.03,13.68,0,15.76,0,31.52,0,47.28,0,.55,0,1.09,0,1.77Z"/><path class="cls-2" d="M98.81,39.3c-.13,8.68-2.84,16.16-9.72,21.71-5.77,4.65-12.55,6.21-19.8,5.68-9.7-.72-17.37-4.93-22.04-13.74-5.13-9.69-4.37-25.22,5.06-33.84,4.41-4.03,9.65-6.18,15.55-6.76,6.34-.62,12.47.12,18.09,3.34,7.23,4.14,11.15,10.54,12.47,18.65.1.59.18,1.19.22,1.78.08,1.08.11,2.15.17,3.18ZM96.84,39.46c.02-4.56-.86-8.91-3.01-12.94-.27-.51-.93-.99-1.49-1.12-3.18-.73-6.4-.86-9.64-.48-6.42.76-12.14,3.08-16.24,8.24-6.45,8.12-7.24,17.31-3.95,26.84,1.71,4.96,1.03,3.88,5.81,4.64.16.03.32.06.47.07,6.75.53,13.09-.68,18.58-4.85,6.73-5.11,9.34-12.2,9.48-20.41Z"/><path class="cls-2" d="M206.3,122.06c.11-5.47,1.41-10.62,4.5-15.18,4.65-6.86,11.33-10.25,19.42-11.08,4.87-.5,9.68-.11,14.27,1.7,9.56,3.77,14.76,11,16.15,21.03.84,6.06.15,11.99-2.65,17.52-4.22,8.35-11.21,12.79-20.34,13.97-6.3.81-12.39-.05-18.01-3.14-8.15-4.48-12.23-11.65-13.21-20.74-.07-.67-.1-1.36-.12-2.03-.02-.68,0-1.35,0-2.03ZM248.78,108.11c-1.87.15-3.23.2-4.57.37-5.68.73-10.7,2.9-14.72,7.06-7.8,8.06-8.46,22.2-3.4,31.22.23.41.82.76,1.29.86,3.18.7,6.4.9,9.64.52,5.9-.7,11.07-2.93,15.26-7.26,7.75-8.01,8.54-21.79,3.62-31-.24-.45-.83-.89-1.33-.98-2.08-.36-4.18-.58-5.79-.79Z"/><path class="cls-2" d="M11.27,41.17c1.74.15,3.35.15,4.9.45,2.86.57,5.04,3.42,5.16,6.89.13,3.79.15,7.6-.02,11.39-.18,3.96-2.4,6.65-5.71,7.18-1.21.19-2.47.13-3.71.07-.27-.01-.69-.51-.73-.83-.13-1.03-.15-2.07-.15-3.11,0-6.76.02-13.51.04-20.27,0-.51.12-1.02.22-1.77Z"/><path class="cls-2" d="M11.1,10.87c1.62.08,3.11.04,4.55.26,3.17.47,5.51,3.36,5.68,7.08.12,2.59.13,5.2,0,7.79-.23,4.53-3.18,7.23-7.7,7.24-.83,0-1.66,0-2.53,0V10.87Z"/><path class="cls-2" d="M170.3,123.87c0-6.56-.01-13.12,0-19.68,0-2.36.1-4.72.1-7.07,0-.88.31-1.22,1.2-1.16.79.05,1.6-.09,2.39-.05,3.77.14,6.07,2.15,6.7,5.89.16.94.23,1.91.23,2.86.01,12.84.02,25.68,0,38.52,0,1.35-.17,2.72-.45,4.04-.6,2.79-2.56,4.56-5.38,4.87-1.22.14-2.47.06-3.71.05-.99,0-.87-.82-.89-1.4-.07-2.12-.09-4.24-.1-6.36-.01-6.84,0-13.68,0-20.52-.03,0-.06,0-.08,0Z"/><path class="cls-2" d="M122.75,11.06c1.71,0,3.36-.15,4.97.03,2.73.32,4.72,2.55,5.24,5.65.16.94.24,1.91.24,2.86,0,13.16-.01,26.31-.04,39.47,0,.87-.1,1.76-.26,2.62-.67,3.57-2.82,5.39-6.47,5.51-1.19.04-2.39,0-3.68,0V11.06Z"/><path class="cls-2" d="M132.92,120.01v-23.84c5.57-1.57,10.12,1.72,10.24,7.41.06,2.76.11,5.52-.03,8.27-.07,1.45-.39,2.94-.91,4.29-.98,2.51-2.99,3.77-5.68,3.87-1.15.04-2.31,0-3.63,0Z"/><path class="cls-2" d="M41.17,135.18c.31-2.63.59-5.04.89-7.45.69-5.47,1.41-10.94,2.05-16.42.12-1.02.74-.81,1.34-.88.66-.08.8.27.86.83.8,7.51,1.6,15.02,2.46,22.53.11.96-.19,1.38-1.08,1.39-2.1.02-4.21,0-6.54,0Z"/><path class="cls-2" d="M234.76,50.27h-7.78c1.03-8.21,2.04-16.33,3.06-24.51h2.03c.9,8.19,1.79,16.31,2.68,24.51Z"/><path class="cls-2" d="M100.66,110.69h2.04c.89,8.15,1.78,16.26,2.68,24.48h-7.77c1.02-8.17,2.03-16.27,3.05-24.48Z"/><path class="cls-2" d="M323.98,110.68c.89,8.16,1.78,16.29,2.68,24.5h-7.75c.2-1.67.37-3.25.57-4.83.76-6.1,1.52-12.2,2.31-18.3.22-1.69.24-1.68,2.19-1.37Z"/></g></svg>